REM DIRINDEX 1\2,1\3
REM DIRNAME cjc039,folder01,folder02
TITLE ""
FILE "1281-1300.mp3" MP3
  TRACK 01 AUDIO
    TITLE "0:"
    INDEX 01 00:00:00
  TRACK 02 AUDIO
    TITLE "2:cjc039_1561"
    INDEX 01 00:00:27
  TRACK 03 AUDIO
    TITLE "0:"
    INDEX 01 00:01:38
  TRACK 04 AUDIO
    TITLE "3:cjc039_1562"
    INDEX 01 00:02:16
  TRACK 05 AUDIO
    TITLE "0:"
    INDEX 01 00:05:24
  TRACK 06 AUDIO
    TITLE "2:cjc039_1563"
    INDEX 01 00:06:73
  TRACK 07 AUDIO
    TITLE "0:"
    INDEX 01 00:08:19
  TRACK 08 AUDIO
    TITLE "3:cjc039_1564"
    INDEX 01 00:08:70
  TRACK 09 AUDIO
    TITLE "0:"
    INDEX 01 00:13:16
  TRACK 10 AUDIO
    TITLE "2:cjc039_1565"
    INDEX 01 00:14:62
  TRACK 11 AUDIO
    TITLE "0:"
    INDEX 01 00:15:60
  TRACK 12 AUDIO
    TITLE "3:cjc039_1566"
    INDEX 01 00:16:42
  TRACK 13 AUDIO
    TITLE "0:"
    INDEX 01 00:19:46
  TRACK 14 AUDIO
    TITLE "2:cjc039_1567"
    INDEX 01 00:21:21
  TRACK 15 AUDIO
    TITLE "0:"
    INDEX 01 00:22:50
  TRACK 16 AUDIO
    TITLE "3:cjc039_1568"
    INDEX 01 00:23:26
  TRACK 17 AUDIO
    TITLE "0:"
    INDEX 01 00:27:22
  TRACK 18 AUDIO
    TITLE "2:cjc039_1569"
    INDEX 01 00:28:74
  TRACK 19 AUDIO
    TITLE "0:"
    INDEX 01 00:29:72
  TRACK 20 AUDIO
    TITLE "3:cjc039_1570"
    INDEX 01 00:30:50
  TRACK 21 AUDIO
    TITLE "0:"
    INDEX 01 00:33:71
  TRACK 22 AUDIO
    TITLE "2:cjc039_1571"
    INDEX 01 00:35:47
  TRACK 23 AUDIO
    TITLE "0:"
    INDEX 01 00:37:18
  TRACK 24 AUDIO
    TITLE "3:cjc039_1572"
    INDEX 01 00:37:69
  TRACK 25 AUDIO
    TITLE "0:"
    INDEX 01 00:41:61
  TRACK 26 AUDIO
    TITLE "2:cjc039_1573"
    INDEX 01 00:43:39
  TRACK 27 AUDIO
    TITLE "0:"
    INDEX 01 00:44:52
  TRACK 28 AUDIO
    TITLE "3:cjc039_1574"
    INDEX 01 00:45:30
  TRACK 29 AUDIO
    TITLE "0:"
    INDEX 01 00:48:59
  TRACK 30 AUDIO
    TITLE "2:cjc039_1575"
    INDEX 01 00:50:39
  TRACK 31 AUDIO
    TITLE "0:"
    INDEX 01 00:51:65
  TRACK 32 AUDIO
    TITLE "3:cjc039_1576"
    INDEX 01 00:52:47
  TRACK 33 AUDIO
    TITLE "0:"
    INDEX 01 00:56:22
  TRACK 34 AUDIO
    TITLE "2:cjc039_1577"
    INDEX 01 00:57:72
  TRACK 35 AUDIO
    TITLE "0:"
    INDEX 01 00:59:10
  TRACK 36 AUDIO
    TITLE "3:cjc039_1578"
    INDEX 01 00:59:65
  TRACK 37 AUDIO
    TITLE "0:"
    INDEX 01 01:04:50
  TRACK 38 AUDIO
    TITLE "2:cjc039_1579"
    INDEX 01 01:06:30
  TRACK 39 AUDIO
    TITLE "0:"
    INDEX 01 01:07:61
  TRACK 40 AUDIO
    TITLE "3:cjc039_1580"
    INDEX 01 01:08:33
  TRACK 41 AUDIO
    TITLE "0:"
    INDEX 01 01:13:02
  TRACK 42 AUDIO
    TITLE "2:cjc039_1581"
    INDEX 01 01:14:57
  TRACK 43 AUDIO
    TITLE "0:"
    INDEX 01 01:15:44
  TRACK 44 AUDIO
    TITLE "3:cjc039_1582"
    INDEX 01 01:16:28
  TRACK 45 AUDIO
    TITLE "0:"
    INDEX 01 01:19:01
  TRACK 46 AUDIO
    TITLE "2:cjc039_1583"
    INDEX 01 01:20:55
  TRACK 47 AUDIO
    TITLE "0:"
    INDEX 01 01:22:05
  TRACK 48 AUDIO
    TITLE "3:cjc039_1584"
    INDEX 01 01:22:58
  TRACK 49 AUDIO
    TITLE "0:"
    INDEX 01 01:25:60
  TRACK 50 AUDIO
    TITLE "2:cjc039_1585"
    INDEX 01 01:27:34
  TRACK 51 AUDIO
    TITLE "0:"
    INDEX 01 01:28:43
  TRACK 52 AUDIO
    TITLE "3:cjc039_1586"
    INDEX 01 01:29:23
  TRACK 53 AUDIO
    TITLE "0:"
    INDEX 01 01:32:66
  TRACK 54 AUDIO
    TITLE "2:cjc039_1587"
    INDEX 01 01:34:38
  TRACK 55 AUDIO
    TITLE "0:"
    INDEX 01 01:35:45
  TRACK 56 AUDIO
    TITLE "3:cjc039_1588"
    INDEX 01 01:36:27
  TRACK 57 AUDIO
    TITLE "0:"
    INDEX 01 01:39:57
  TRACK 58 AUDIO
    TITLE "2:cjc039_1589"
    INDEX 01 01:41:36
  TRACK 59 AUDIO
    TITLE "0:"
    INDEX 01 01:42:49
  TRACK 60 AUDIO
    TITLE "3:cjc039_1590"
    INDEX 01 01:43:29
  TRACK 61 AUDIO
    TITLE "0:"
    INDEX 01 01:46:29
  TRACK 62 AUDIO
    TITLE "2:cjc039_1591"
    INDEX 01 01:48:05
  TRACK 63 AUDIO
    TITLE "0:"
    INDEX 01 01:49:22
  TRACK 64 AUDIO
    TITLE "3:cjc039_1592"
    INDEX 01 01:50:00
  TRACK 65 AUDIO
    TITLE "0:"
    INDEX 01 01:53:21
  TRACK 66 AUDIO
    TITLE "2:cjc039_1593"
    INDEX 01 01:54:70
  TRACK 67 AUDIO
    TITLE "0:"
    INDEX 01 01:55:71
  TRACK 68 AUDIO
    TITLE "3:cjc039_1594"
    INDEX 01 01:56:49
  TRACK 69 AUDIO
    TITLE "0:"
    INDEX 01 01:59:20
  TRACK 70 AUDIO
    TITLE "2:cjc039_1595"
    INDEX 01 02:00:72
  TRACK 71 AUDIO
    TITLE "0:"
    INDEX 01 02:02:09
  TRACK 72 AUDIO
    TITLE "3:cjc039_1596"
    INDEX 01 02:02:66
  TRACK 73 AUDIO
    TITLE "0:"
    INDEX 01 02:07:06
  TRACK 74 AUDIO
    TITLE "2:cjc039_1597"
    INDEX 01 02:08:52
  TRACK 75 AUDIO
    TITLE "0:"
    INDEX 01 02:09:52
  TRACK 76 AUDIO
    TITLE "3:cjc039_1598"
    INDEX 01 02:10:36
  TRACK 77 AUDIO
    TITLE "0:"
    INDEX 01 02:13:34
  TRACK 78 AUDIO
    TITLE "2:cjc039_1599"
    INDEX 01 02:15:09
  TRACK 79 AUDIO
    TITLE "0:"
    INDEX 01 02:16:30
  TRACK 80 AUDIO
    TITLE "3:cjc039_1600"
    INDEX 01 02:17:10
  TRACK 81 AUDIO
    TITLE "0:"
    INDEX 01 02:20:69
